# xmcd
#
# Track frame offsets:
#	150
#	23908
#	41161
#	54874
#	71949
#	89629
#	109022
#	126475
#	146252
#	160561
#	188607
#	207279
#	226413
#
# Disc length: 3297 seconds
#
# Revision: 4
# Processed by: cddbd v1.4PL0 Copyright (c) Steve Scherf et al.
# Submitted via: MusicWizard 6.0.1
#
DISCID=b30cdf0d
DTITLE=Various Artist - Songbook Gilberto Gil 1
DYEAR=1992
DGENRE=MPB
TTITLE0=Tim Maia - Aquele Abraço
TTITLE1=Djavan - Drão
TTITLE2=Chico Buarque - Ensaio Geral
TTITLE3=Gal Costa and Marco Pereira - A Linha E O Linho
TTITLE4=Emílio Santiago - Amor Até O Fim
TTITLE5=Angela Rô Rô and Antonio Adolfo - Deixar Você
TTITLE6=Ney Matogrosso - Pai E Mãe
TTITLE7=Geraldo Azevedo and Oswaldinho - Soy Loco Por Ti, América
TTITLE8=Beth Carvalho and Geraldo Vespar - Mancada
TTITLE9=Flávio Venturini - Retiros Espirituais
TTITLE10=Elba Ramalho and Dominguinhos - De Onde Vem O Baião
TTITLE11=Leny Andrade - Mar De Copacabana
TTITLE12=Fafá De Belém and Wagner Tiso - Preciso Aprender A Só Ser
EXTD=YEAR: 1992
EXTT0=
EXTT1=
EXTT2=
EXTT3=
EXTT4=
EXTT5=
EXTT6=
EXTT7=
EXTT8=
EXTT9=
EXTT10=
EXTT11=
EXTT12=
PLAYORDER=
